<svg width="1080" height="124" viewBox="0 0 1080 124" fill="none" xmlns="http://www.w3.org/2000/svg">
<rect width="1080" height="123.964" rx="24" fill="#FCFEFF"/>
<mask id="path-2-outside-1_1_220" maskUnits="userSpaceOnUse" x="58" y="46.3472" width="141" height="32" fill="black">
<rect fill="white" x="58" y="46.3472" width="141" height="32"/>
<path d="M69.9275 76.9392C68.9222 76.9392 67.9029 76.7909 66.8697 76.4945C65.8364 76.198 64.859 75.7533 63.9375 75.1604C63.0439 74.5406 62.248 73.759 61.5499 72.8157C60.8517 71.8724 60.3351 70.754 60 69.4603L64.1888 67.8433C64.5519 69.2717 65.2081 70.444 66.1576 71.3604C67.135 72.2497 68.3777 72.6944 69.8856 72.6944C70.6396 72.6944 71.3517 72.5731 72.0219 72.3306C72.6922 72.0611 73.2646 71.7107 73.7394 71.2795C74.2141 70.8213 74.5911 70.2823 74.8703 69.6625C75.1496 69.0426 75.2892 68.3553 75.2892 67.6007C75.2892 66.8461 75.1496 66.1588 74.8703 65.539C74.619 64.8922 74.256 64.3397 73.7812 63.8815C73.3065 63.4233 72.734 63.073 72.0638 62.8304C71.3936 62.5609 70.6676 62.4262 69.8856 62.4262C68.9641 62.4262 68.1263 62.6283 67.3723 63.0325C66.6184 63.4099 65.99 63.9084 65.4874 64.5283L60.8797 62.5474L62.5971 48.6408H78.2214V52.7239H66.4927L65.4455 59.9197L65.6968 60.0006C66.3112 59.5424 67.0233 59.1516 67.8331 58.8282C68.643 58.5048 69.6343 58.3431 70.8072 58.3431C72.008 58.3431 73.1529 58.5722 74.242 59.0303C75.359 59.4616 76.3364 60.0814 77.1742 60.89C78.012 61.6985 78.6822 62.6687 79.1848 63.8006C79.6875 64.9326 79.9388 66.1858 79.9388 67.5603C79.9388 68.9078 79.6875 70.161 79.1848 71.3199C78.6822 72.4519 77.984 73.4356 77.0904 74.271C76.1968 75.1065 75.1356 75.7668 73.9069 76.2519C72.7061 76.7101 71.3797 76.9392 69.9275 76.9392Z"/>
<path d="M87.2045 76.5349C86.3109 76.5349 85.5429 76.2385 84.9006 75.6455C84.2863 75.0257 83.9791 74.2845 83.9791 73.4221C83.9791 72.5597 84.2863 71.8185 84.9006 71.1987C85.5429 70.5788 86.3109 70.2688 87.2045 70.2688C88.0981 70.2688 88.8661 70.5788 89.5083 71.1987C90.1506 71.8185 90.4718 72.5597 90.4718 73.4221C90.4718 74.2845 90.1506 75.0257 89.5083 75.6455C88.8661 76.2385 88.0981 76.5349 87.2045 76.5349ZM87.2045 62.3453C86.3109 62.3453 85.5429 62.0488 84.9006 61.4559C84.2863 60.8361 83.9791 60.0949 83.9791 59.2325C83.9791 58.3701 84.2863 57.6424 84.9006 57.0495C85.5429 56.4296 86.3109 56.1197 87.2045 56.1197C88.0981 56.1197 88.8661 56.4296 89.5083 57.0495C90.1506 57.6424 90.4718 58.3701 90.4718 59.2325C90.4718 60.0949 90.1506 60.8361 89.5083 61.4559C88.8661 62.0488 88.0981 62.3453 87.2045 62.3453Z"/>
<path d="M101.236 76.2924V54.0579L95.9163 56.2814L94.157 52.4409L102.577 48.6408H105.886V76.2924H101.236Z"/>
<path d="M120.727 76.9392C119.721 76.9392 118.716 76.8044 117.711 76.5349C116.705 76.2654 115.756 75.8477 114.862 75.2817C113.997 74.6888 113.215 73.9476 112.516 73.0583C111.818 72.1689 111.288 71.1043 110.925 69.8646L115.281 68.1263C115.672 69.5816 116.342 70.7001 117.292 71.4816C118.241 72.2632 119.386 72.654 120.727 72.654C121.397 72.654 122.039 72.5462 122.653 72.3306C123.296 72.115 123.854 71.8185 124.329 71.4412C124.804 71.0369 125.181 70.5788 125.46 70.0667C125.739 69.5277 125.879 68.9348 125.879 68.288C125.879 67.6411 125.725 67.0482 125.418 66.5092C125.139 65.9702 124.748 65.512 124.245 65.1347C123.743 64.7574 123.142 64.4609 122.444 64.2453C121.774 64.0297 121.048 63.9219 120.266 63.9219H117.794V59.758H120.014C120.685 59.758 121.299 59.6772 121.858 59.5155C122.444 59.3268 122.961 59.0708 123.407 58.7474C123.854 58.424 124.203 58.0197 124.455 57.5346C124.706 57.0225 124.832 56.4431 124.832 55.7963C124.832 54.6913 124.413 53.8288 123.575 53.209C122.765 52.5622 121.732 52.2387 120.475 52.2387C119.777 52.2387 119.163 52.3331 118.632 52.5217C118.13 52.7104 117.697 52.9664 117.334 53.2898C116.971 53.6132 116.663 53.9771 116.412 54.3813C116.189 54.7586 116.007 55.1494 115.868 55.5537L111.595 53.8154C111.818 53.1685 112.167 52.5083 112.642 51.8345C113.117 51.1338 113.717 50.5004 114.443 49.9344C115.169 49.3685 116.021 48.9103 116.999 48.56C118.004 48.1826 119.163 47.994 120.475 47.994C121.816 47.994 123.044 48.1826 124.161 48.56C125.278 48.9373 126.242 49.4628 127.052 50.1366C127.862 50.8103 128.49 51.6054 128.937 52.5217C129.383 53.4381 129.607 54.4352 129.607 55.5133C129.607 56.2948 129.495 57.009 129.272 57.6559C129.076 58.3027 128.797 58.8821 128.434 59.3942C128.071 59.8793 127.666 60.297 127.219 60.6474C126.772 60.9978 126.312 61.2942 125.837 61.5368V61.7793C126.479 62.0488 127.094 62.3992 127.68 62.8304C128.266 63.2347 128.769 63.7198 129.188 64.2858C129.635 64.8517 129.984 65.4985 130.235 66.2262C130.487 66.9269 130.612 67.695 130.612 68.5305C130.612 69.7433 130.361 70.8752 129.858 71.9263C129.356 72.9505 128.657 73.8398 127.764 74.5945C126.898 75.3221 125.865 75.8881 124.664 76.2924C123.463 76.7236 122.151 76.9392 120.727 76.9392Z"/>
<path d="M144.503 76.2924V47.3472H154.892C156.232 47.3472 157.489 47.5628 158.662 47.994C159.862 48.4252 160.91 49.0316 161.803 49.8132C162.697 50.5947 163.395 51.538 163.898 52.643C164.428 53.721 164.694 54.9204 164.694 56.2409C164.694 57.5346 164.428 58.7339 163.898 59.8389C163.395 60.9169 162.697 61.8467 161.803 62.6283C160.91 63.4099 159.862 64.0163 158.662 64.4475C157.489 64.8787 156.232 65.0943 154.892 65.0943H149.237V76.2924H144.503ZM155.017 60.7283C155.799 60.7283 156.497 60.607 157.112 60.3644C157.726 60.0949 158.243 59.7445 158.662 59.3133C159.081 58.8821 159.402 58.397 159.625 57.858C159.848 57.319 159.96 56.78 159.96 56.2409C159.96 55.675 159.848 55.1225 159.625 54.5835C159.402 54.0444 159.081 53.5728 158.662 53.1685C158.243 52.7373 157.726 52.387 157.112 52.1175C156.497 51.848 155.799 51.7132 155.017 51.7132H149.237V60.7283H155.017Z"/>
<path d="M168.72 47.3472H173.453L183.255 63.8006H183.507L193.309 47.3472H198V76.2924H193.309V60.5665L193.56 55.7154H193.309L184.763 70.1476H181.957L173.453 55.7154H173.202L173.453 60.5665V76.2924H168.72V47.3472Z"/>
</mask>
<path d="M69.9275 76.9392C68.9222 76.9392 67.9029 76.7909 66.8697 76.4945C65.8364 76.198 64.859 75.7533 63.9375 75.1604C63.0439 74.5406 62.248 73.759 61.5499 72.8157C60.8517 71.8724 60.3351 70.754 60 69.4603L64.1888 67.8433C64.5519 69.2717 65.2081 70.444 66.1576 71.3604C67.135 72.2497 68.3777 72.6944 69.8856 72.6944C70.6396 72.6944 71.3517 72.5731 72.0219 72.3306C72.6922 72.0611 73.2646 71.7107 73.7394 71.2795C74.2141 70.8213 74.5911 70.2823 74.8703 69.6625C75.1496 69.0426 75.2892 68.3553 75.2892 67.6007C75.2892 66.8461 75.1496 66.1588 74.8703 65.539C74.619 64.8922 74.256 64.3397 73.7812 63.8815C73.3065 63.4233 72.734 63.073 72.0638 62.8304C71.3936 62.5609 70.6676 62.4262 69.8856 62.4262C68.9641 62.4262 68.1263 62.6283 67.3723 63.0325C66.6184 63.4099 65.99 63.9084 65.4874 64.5283L60.8797 62.5474L62.5971 48.6408H78.2214V52.7239H66.4927L65.4455 59.9197L65.6968 60.0006C66.3112 59.5424 67.0233 59.1516 67.8331 58.8282C68.643 58.5048 69.6343 58.3431 70.8072 58.3431C72.008 58.3431 73.1529 58.5722 74.242 59.0303C75.359 59.4616 76.3364 60.0814 77.1742 60.89C78.012 61.6985 78.6822 62.6687 79.1848 63.8006C79.6875 64.9326 79.9388 66.1858 79.9388 67.5603C79.9388 68.9078 79.6875 70.161 79.1848 71.3199C78.6822 72.4519 77.984 73.4356 77.0904 74.271C76.1968 75.1065 75.1356 75.7668 73.9069 76.2519C72.7061 76.7101 71.3797 76.9392 69.9275 76.9392Z" fill="#3D484F"/>
<path d="M87.2045 76.5349C86.3109 76.5349 85.5429 76.2385 84.9006 75.6455C84.2863 75.0257 83.9791 74.2845 83.9791 73.4221C83.9791 72.5597 84.2863 71.8185 84.9006 71.1987C85.5429 70.5788 86.3109 70.2688 87.2045 70.2688C88.0981 70.2688 88.8661 70.5788 89.5083 71.1987C90.1506 71.8185 90.4718 72.5597 90.4718 73.4221C90.4718 74.2845 90.1506 75.0257 89.5083 75.6455C88.8661 76.2385 88.0981 76.5349 87.2045 76.5349ZM87.2045 62.3453C86.3109 62.3453 85.5429 62.0488 84.9006 61.4559C84.2863 60.8361 83.9791 60.0949 83.9791 59.2325C83.9791 58.3701 84.2863 57.6424 84.9006 57.0495C85.5429 56.4296 86.3109 56.1197 87.2045 56.1197C88.0981 56.1197 88.8661 56.4296 89.5083 57.0495C90.1506 57.6424 90.4718 58.3701 90.4718 59.2325C90.4718 60.0949 90.1506 60.8361 89.5083 61.4559C88.8661 62.0488 88.0981 62.3453 87.2045 62.3453Z" fill="#3D484F"/>
<path d="M101.236 76.2924V54.0579L95.9163 56.2814L94.157 52.4409L102.577 48.6408H105.886V76.2924H101.236Z" fill="#3D484F"/>
<path d="M120.727 76.9392C119.721 76.9392 118.716 76.8044 117.711 76.5349C116.705 76.2654 115.756 75.8477 114.862 75.2817C113.997 74.6888 113.215 73.9476 112.516 73.0583C111.818 72.1689 111.288 71.1043 110.925 69.8646L115.281 68.1263C115.672 69.5816 116.342 70.7001 117.292 71.4816C118.241 72.2632 119.386 72.654 120.727 72.654C121.397 72.654 122.039 72.5462 122.653 72.3306C123.296 72.115 123.854 71.8185 124.329 71.4412C124.804 71.0369 125.181 70.5788 125.46 70.0667C125.739 69.5277 125.879 68.9348 125.879 68.288C125.879 67.6411 125.725 67.0482 125.418 66.5092C125.139 65.9702 124.748 65.512 124.245 65.1347C123.743 64.7574 123.142 64.4609 122.444 64.2453C121.774 64.0297 121.048 63.9219 120.266 63.9219H117.794V59.758H120.014C120.685 59.758 121.299 59.6772 121.858 59.5155C122.444 59.3268 122.961 59.0708 123.407 58.7474C123.854 58.424 124.203 58.0197 124.455 57.5346C124.706 57.0225 124.832 56.4431 124.832 55.7963C124.832 54.6913 124.413 53.8288 123.575 53.209C122.765 52.5622 121.732 52.2387 120.475 52.2387C119.777 52.2387 119.163 52.3331 118.632 52.5217C118.13 52.7104 117.697 52.9664 117.334 53.2898C116.971 53.6132 116.663 53.9771 116.412 54.3813C116.189 54.7586 116.007 55.1494 115.868 55.5537L111.595 53.8154C111.818 53.1685 112.167 52.5083 112.642 51.8345C113.117 51.1338 113.717 50.5004 114.443 49.9344C115.169 49.3685 116.021 48.9103 116.999 48.56C118.004 48.1826 119.163 47.994 120.475 47.994C121.816 47.994 123.044 48.1826 124.161 48.56C125.278 48.9373 126.242 49.4628 127.052 50.1366C127.862 50.8103 128.49 51.6054 128.937 52.5217C129.383 53.4381 129.607 54.4352 129.607 55.5133C129.607 56.2948 129.495 57.009 129.272 57.6559C129.076 58.3027 128.797 58.8821 128.434 59.3942C128.071 59.8793 127.666 60.297 127.219 60.6474C126.772 60.9978 126.312 61.2942 125.837 61.5368V61.7793C126.479 62.0488 127.094 62.3992 127.68 62.8304C128.266 63.2347 128.769 63.7198 129.188 64.2858C129.635 64.8517 129.984 65.4985 130.235 66.2262C130.487 66.9269 130.612 67.695 130.612 68.5305C130.612 69.7433 130.361 70.8752 129.858 71.9263C129.356 72.9505 128.657 73.8398 127.764 74.5945C126.898 75.3221 125.865 75.8881 124.664 76.2924C123.463 76.7236 122.151 76.9392 120.727 76.9392Z" fill="#3D484F"/>
<path d="M144.503 76.2924V47.3472H154.892C156.232 47.3472 157.489 47.5628 158.662 47.994C159.862 48.4252 160.91 49.0316 161.803 49.8132C162.697 50.5947 163.395 51.538 163.898 52.643C164.428 53.721 164.694 54.9204 164.694 56.2409C164.694 57.5346 164.428 58.7339 163.898 59.8389C163.395 60.9169 162.697 61.8467 161.803 62.6283C160.91 63.4099 159.862 64.0163 158.662 64.4475C157.489 64.8787 156.232 65.0943 154.892 65.0943H149.237V76.2924H144.503ZM155.017 60.7283C155.799 60.7283 156.497 60.607 157.112 60.3644C157.726 60.0949 158.243 59.7445 158.662 59.3133C159.081 58.8821 159.402 58.397 159.625 57.858C159.848 57.319 159.96 56.78 159.96 56.2409C159.96 55.675 159.848 55.1225 159.625 54.5835C159.402 54.0444 159.081 53.5728 158.662 53.1685C158.243 52.7373 157.726 52.387 157.112 52.1175C156.497 51.848 155.799 51.7132 155.017 51.7132H149.237V60.7283H155.017Z" fill="#3D484F"/>
<path d="M168.72 47.3472H173.453L183.255 63.8006H183.507L193.309 47.3472H198V76.2924H193.309V60.5665L193.56 55.7154H193.309L184.763 70.1476H181.957L173.453 55.7154H173.202L173.453 60.5665V76.2924H168.72V47.3472Z" fill="#3D484F"/>
<path d="M69.9275 76.9392C68.9222 76.9392 67.9029 76.7909 66.8697 76.4945C65.8364 76.198 64.859 75.7533 63.9375 75.1604C63.0439 74.5406 62.248 73.759 61.5499 72.8157C60.8517 71.8724 60.3351 70.754 60 69.4603L64.1888 67.8433C64.5519 69.2717 65.2081 70.444 66.1576 71.3604C67.135 72.2497 68.3777 72.6944 69.8856 72.6944C70.6396 72.6944 71.3517 72.5731 72.0219 72.3306C72.6922 72.0611 73.2646 71.7107 73.7394 71.2795C74.2141 70.8213 74.5911 70.2823 74.8703 69.6625C75.1496 69.0426 75.2892 68.3553 75.2892 67.6007C75.2892 66.8461 75.1496 66.1588 74.8703 65.539C74.619 64.8922 74.256 64.3397 73.7812 63.8815C73.3065 63.4233 72.734 63.073 72.0638 62.8304C71.3936 62.5609 70.6676 62.4262 69.8856 62.4262C68.9641 62.4262 68.1263 62.6283 67.3723 63.0325C66.6184 63.4099 65.99 63.9084 65.4874 64.5283L60.8797 62.5474L62.5971 48.6408H78.2214V52.7239H66.4927L65.4455 59.9197L65.6968 60.0006C66.3112 59.5424 67.0233 59.1516 67.8331 58.8282C68.643 58.5048 69.6343 58.3431 70.8072 58.3431C72.008 58.3431 73.1529 58.5722 74.242 59.0303C75.359 59.4616 76.3364 60.0814 77.1742 60.89C78.012 61.6985 78.6822 62.6687 79.1848 63.8006C79.6875 64.9326 79.9388 66.1858 79.9388 67.5603C79.9388 68.9078 79.6875 70.161 79.1848 71.3199C78.6822 72.4519 77.984 73.4356 77.0904 74.271C76.1968 75.1065 75.1356 75.7668 73.9069 76.2519C72.7061 76.7101 71.3797 76.9392 69.9275 76.9392Z" stroke="#171C20" stroke-width="2" mask="url(#path-2-outside-1_1_220)"/>
<path d="M87.2045 76.5349C86.3109 76.5349 85.5429 76.2385 84.9006 75.6455C84.2863 75.0257 83.9791 74.2845 83.9791 73.4221C83.9791 72.5597 84.2863 71.8185 84.9006 71.1987C85.5429 70.5788 86.3109 70.2688 87.2045 70.2688C88.0981 70.2688 88.8661 70.5788 89.5083 71.1987C90.1506 71.8185 90.4718 72.5597 90.4718 73.4221C90.4718 74.2845 90.1506 75.0257 89.5083 75.6455C88.8661 76.2385 88.0981 76.5349 87.2045 76.5349ZM87.2045 62.3453C86.3109 62.3453 85.5429 62.0488 84.9006 61.4559C84.2863 60.8361 83.9791 60.0949 83.9791 59.2325C83.9791 58.3701 84.2863 57.6424 84.9006 57.0495C85.5429 56.4296 86.3109 56.1197 87.2045 56.1197C88.0981 56.1197 88.8661 56.4296 89.5083 57.0495C90.1506 57.6424 90.4718 58.3701 90.4718 59.2325C90.4718 60.0949 90.1506 60.8361 89.5083 61.4559C88.8661 62.0488 88.0981 62.3453 87.2045 62.3453Z" stroke="#171C20" stroke-width="2" mask="url(#path-2-outside-1_1_220)"/>
<path d="M101.236 76.2924V54.0579L95.9163 56.2814L94.157 52.4409L102.577 48.6408H105.886V76.2924H101.236Z" stroke="#171C20" stroke-width="2" mask="url(#path-2-outside-1_1_220)"/>
<path d="M120.727 76.9392C119.721 76.9392 118.716 76.8044 117.711 76.5349C116.705 76.2654 115.756 75.8477 114.862 75.2817C113.997 74.6888 113.215 73.9476 112.516 73.0583C111.818 72.1689 111.288 71.1043 110.925 69.8646L115.281 68.1263C115.672 69.5816 116.342 70.7001 117.292 71.4816C118.241 72.2632 119.386 72.654 120.727 72.654C121.397 72.654 122.039 72.5462 122.653 72.3306C123.296 72.115 123.854 71.8185 124.329 71.4412C124.804 71.0369 125.181 70.5788 125.46 70.0667C125.739 69.5277 125.879 68.9348 125.879 68.288C125.879 67.6411 125.725 67.0482 125.418 66.5092C125.139 65.9702 124.748 65.512 124.245 65.1347C123.743 64.7574 123.142 64.4609 122.444 64.2453C121.774 64.0297 121.048 63.9219 120.266 63.9219H117.794V59.758H120.014C120.685 59.758 121.299 59.6772 121.858 59.5155C122.444 59.3268 122.961 59.0708 123.407 58.7474C123.854 58.424 124.203 58.0197 124.455 57.5346C124.706 57.0225 124.832 56.4431 124.832 55.7963C124.832 54.6913 124.413 53.8288 123.575 53.209C122.765 52.5622 121.732 52.2387 120.475 52.2387C119.777 52.2387 119.163 52.3331 118.632 52.5217C118.13 52.7104 117.697 52.9664 117.334 53.2898C116.971 53.6132 116.663 53.9771 116.412 54.3813C116.189 54.7586 116.007 55.1494 115.868 55.5537L111.595 53.8154C111.818 53.1685 112.167 52.5083 112.642 51.8345C113.117 51.1338 113.717 50.5004 114.443 49.9344C115.169 49.3685 116.021 48.9103 116.999 48.56C118.004 48.1826 119.163 47.994 120.475 47.994C121.816 47.994 123.044 48.1826 124.161 48.56C125.278 48.9373 126.242 49.4628 127.052 50.1366C127.862 50.8103 128.49 51.6054 128.937 52.5217C129.383 53.4381 129.607 54.4352 129.607 55.5133C129.607 56.2948 129.495 57.009 129.272 57.6559C129.076 58.3027 128.797 58.8821 128.434 59.3942C128.071 59.8793 127.666 60.297 127.219 60.6474C126.772 60.9978 126.312 61.2942 125.837 61.5368V61.7793C126.479 62.0488 127.094 62.3992 127.68 62.8304C128.266 63.2347 128.769 63.7198 129.188 64.2858C129.635 64.8517 129.984 65.4985 130.235 66.2262C130.487 66.9269 130.612 67.695 130.612 68.5305C130.612 69.7433 130.361 70.8752 129.858 71.9263C129.356 72.9505 128.657 73.8398 127.764 74.5945C126.898 75.3221 125.865 75.8881 124.664 76.2924C123.463 76.7236 122.151 76.9392 120.727 76.9392Z" stroke="#171C20" stroke-width="2" mask="url(#path-2-outside-1_1_220)"/>
<path d="M144.503 76.2924V47.3472H154.892C156.232 47.3472 157.489 47.5628 158.662 47.994C159.862 48.4252 160.91 49.0316 161.803 49.8132C162.697 50.5947 163.395 51.538 163.898 52.643C164.428 53.721 164.694 54.9204 164.694 56.2409C164.694 57.5346 164.428 58.7339 163.898 59.8389C163.395 60.9169 162.697 61.8467 161.803 62.6283C160.91 63.4099 159.862 64.0163 158.662 64.4475C157.489 64.8787 156.232 65.0943 154.892 65.0943H149.237V76.2924H144.503ZM155.017 60.7283C155.799 60.7283 156.497 60.607 157.112 60.3644C157.726 60.0949 158.243 59.7445 158.662 59.3133C159.081 58.8821 159.402 58.397 159.625 57.858C159.848 57.319 159.96 56.78 159.96 56.2409C159.96 55.675 159.848 55.1225 159.625 54.5835C159.402 54.0444 159.081 53.5728 158.662 53.1685C158.243 52.7373 157.726 52.387 157.112 52.1175C156.497 51.848 155.799 51.7132 155.017 51.7132H149.237V60.7283H155.017Z" stroke="#171C20" stroke-width="2" mask="url(#path-2-outside-1_1_220)"/>
<path d="M168.72 47.3472H173.453L183.255 63.8006H183.507L193.309 47.3472H198V76.2924H193.309V60.5665L193.56 55.7154H193.309L184.763 70.1476H181.957L173.453 55.7154H173.202L173.453 60.5665V76.2924H168.72V47.3472Z" stroke="#171C20" stroke-width="2" mask="url(#path-2-outside-1_1_220)"/>
<path fill-rule="evenodd" clip-rule="evenodd" d="M740.128 43.3935C740.927 42.6056 740.927 41.3281 740.128 40.5402C739.329 39.7522 738.034 39.7522 737.235 40.5402L731.099 46.5931C730.3 47.381 730.3 48.6585 731.099 49.4465C731.898 50.2344 733.193 50.2344 733.992 49.4465L740.128 43.3935ZM768.765 40.5402C767.966 39.7522 766.671 39.7522 765.872 40.5402C765.073 41.3281 765.073 42.6056 765.872 43.3935L772.008 49.4465C772.807 50.2344 774.102 50.2344 774.901 49.4465C775.7 48.6585 775.7 47.381 774.901 46.5931L768.765 40.5402ZM753 48.0199C743.963 48.0199 736.636 55.2465 736.636 64.161C736.636 73.0755 743.963 80.3021 753 80.3021C762.037 80.3021 769.364 73.0755 769.364 64.161C769.364 55.2465 762.037 48.0199 753 48.0199ZM732.546 64.161C732.546 53.0179 741.703 43.9846 753 43.9846C764.297 43.9846 773.455 53.0179 773.455 64.161C773.455 75.3041 764.297 84.3374 753 84.3374C741.703 84.3374 732.546 75.3041 732.546 64.161ZM753 52.0551C754.13 52.0551 755.045 52.9584 755.045 54.0727V63.0815L760.271 66.5173C761.211 67.1353 761.465 68.388 760.838 69.3152C760.212 70.2424 758.942 70.4931 758.002 69.875L752.776 66.439C752.216 66.0704 751.756 65.5706 751.438 64.9849C751.121 64.3994 750.954 63.7455 750.954 63.0815V54.0727C750.954 52.9584 751.87 52.0551 753 52.0551Z" fill="#3D484F"/>
<path fill-rule="evenodd" clip-rule="evenodd" d="M959.7 47.3476C959.7 45.8767 958.491 44.6843 957 44.6843C955.509 44.6843 954.3 45.8767 954.3 47.3476V76.9396C954.3 78.4105 955.509 79.6029 957 79.6029C958.491 79.6029 959.7 78.4105 959.7 76.9396V47.3476ZM939.6 63.0308C939.6 61.5599 938.391 60.3675 936.9 60.3675C935.409 60.3675 934.2 61.5599 934.2 63.0308V76.939C934.2 78.4099 935.409 79.6023 936.9 79.6023C938.391 79.6023 939.6 78.4099 939.6 76.939V63.0308ZM927 68.3579C928.491 68.3579 929.7 69.5503 929.7 71.0212V76.9396C929.7 78.4105 928.491 79.6029 927 79.6029C925.509 79.6029 924.3 78.4105 924.3 76.9396V71.0212C924.3 69.5503 925.509 68.3579 927 68.3579ZM949.8 55.3373C949.8 53.8664 948.591 52.674 947.1 52.674C945.609 52.674 944.4 53.8664 944.4 55.3373V76.9395C944.4 78.4104 945.609 79.6028 947.1 79.6028C948.591 79.6028 949.8 78.4104 949.8 76.9395V55.3373Z" fill="#3D484F"/>
<path fill-rule="evenodd" clip-rule="evenodd" d="M868.422 50.9945C871.687 49.6567 875.188 48.9702 878.724 48.9747L878.727 48.9747C886.163 48.9747 892.889 51.9527 897.753 56.7714C898.688 57.6979 900.208 57.7011 901.147 56.7785C902.087 55.856 902.09 54.3571 901.155 53.4306C895.426 47.7563 887.492 44.2404 878.728 44.24C874.56 44.2349 870.431 45.0445 866.581 46.6221C862.731 48.2 859.235 50.5147 856.297 53.4327C855.363 54.3604 855.368 55.8593 856.309 56.7807C857.249 57.702 858.769 57.697 859.703 56.7693C862.194 54.2951 865.158 52.3324 868.422 50.9945ZM878.728 44.24L878.727 44.24V46.6074L878.73 44.24L878.728 44.24ZM871.716 59.2617C873.931 58.3288 876.315 57.8494 878.724 57.8523H878.73C881.138 57.8494 883.522 58.3288 885.738 59.2617C887.953 60.1945 889.953 61.5613 891.616 63.2791C892.532 64.2245 894.051 64.2587 895.01 63.3556C895.968 62.4524 896.003 60.9539 895.087 60.0085C892.975 57.8272 890.435 56.0917 887.622 54.9072C884.81 53.7231 881.784 53.1143 878.727 53.1176C875.67 53.1143 872.643 53.7231 869.831 54.9072C867.019 56.0917 864.479 57.8272 862.366 60.0085C861.451 60.9539 861.486 62.4524 862.444 63.3556C863.402 64.2587 864.922 64.2245 865.837 63.2791C867.501 61.5613 869.501 60.1945 871.716 59.2617ZM878.727 53.1176L878.724 53.1176L878.727 55.485L878.73 53.1176L878.727 53.1176ZM875.072 67.506C876.219 66.9932 877.465 66.7285 878.724 66.7299L878.727 66.7299C881.38 66.7299 883.758 67.879 885.383 69.7058C886.257 70.6886 887.773 70.7862 888.77 69.9239C889.766 69.0616 889.865 67.5659 888.991 66.5831C886.494 63.7761 882.82 61.9956 878.728 61.9952H878.727V64.3626L878.73 61.9952L878.728 61.9952C876.784 61.9933 874.862 62.4018 873.091 63.1934C871.32 63.9853 869.741 65.142 868.46 66.5858C867.588 67.5699 867.689 69.0655 868.687 69.9263C869.684 70.7871 871.201 70.6872 872.073 69.7031C872.903 68.768 873.925 68.0188 875.072 67.506ZM882 74.5718C882 76.2061 880.657 77.531 879 77.531C877.343 77.531 876 76.2061 876 74.5718C876 72.9375 877.343 71.6126 879 71.6126C880.657 71.6126 882 72.9375 882 74.5718Z" fill="#3D484F"/>
<path fill-rule="evenodd" clip-rule="evenodd" d="M815.097 41.6344C815.781 41.3048 816.6 41.3759 817.212 41.8182L830.192 51.2023C830.709 51.5754 831.009 52.1639 831 52.7858C830.991 53.4077 830.674 53.9881 830.148 54.3476L818.73 62.1434L830.148 69.9392C830.674 70.2986 830.991 70.879 831 71.5009C831.009 72.1228 830.709 72.7113 830.192 73.0845L817.212 82.4685C816.6 82.9108 815.781 82.982 815.097 82.6523C814.413 82.3226 813.981 81.6487 813.981 80.9114V65.3858L804.187 72.073C803.277 72.6943 802.016 72.4869 801.372 71.6097C800.727 70.7326 800.942 69.5178 801.852 68.8965L811.743 62.1434L801.852 55.3902C800.942 54.7689 800.727 53.5542 801.372 52.677C802.016 51.7998 803.277 51.5924 804.187 52.2138L813.981 58.9009V43.3753C813.981 42.6381 814.413 41.9641 815.097 41.6344ZM818.019 66.4285L825.553 71.5723L818.019 77.0188V66.4285ZM818.019 57.8583V47.2679L825.553 52.7144L818.019 57.8583Z" fill="#3D484F"/>
<path fill-rule="evenodd" clip-rule="evenodd" d="M984.477 48.5576C985.743 47.3089 987.46 46.6074 989.25 46.6074H1016.25C1018.04 46.6074 1019.76 47.3089 1021.02 48.5576C1022.29 49.8062 1023 51.4998 1023 53.2656V53.6464C1023.94 53.9743 1024.8 54.5069 1025.52 55.2158C1026.79 56.4644 1027.5 58.158 1027.5 59.9238V64.3626C1027.5 66.1285 1026.79 67.822 1025.52 69.0707C1024.8 69.7796 1023.94 70.3121 1023 70.64V71.0208C1023 72.7867 1022.29 74.4802 1021.02 75.7289C1019.76 76.9775 1018.04 77.679 1016.25 77.679H989.25C987.46 77.679 985.743 76.9775 984.477 75.7289C983.211 74.4802 982.5 72.7867 982.5 71.0208V53.2656C982.5 51.4998 983.211 49.8062 984.477 48.5576ZM989.25 51.0462C988.653 51.0462 988.081 51.2801 987.659 51.6963C987.237 52.1125 987 52.677 987 53.2656V71.0208C987 71.6095 987.237 72.174 987.659 72.5902C988.081 73.0064 988.653 73.2402 989.25 73.2402H1016.25C1016.85 73.2402 1017.42 73.0064 1017.84 72.5902C1018.26 72.174 1018.5 71.6095 1018.5 71.0208V68.8014C1018.5 67.5757 1019.51 66.582 1020.75 66.582C1021.35 66.582 1021.92 66.3482 1022.34 65.932C1022.76 65.5158 1023 64.9512 1023 64.3626V59.9238C1023 59.3352 1022.76 58.7707 1022.34 58.3545C1021.92 57.9383 1021.35 57.7044 1020.75 57.7044C1019.51 57.7044 1018.5 56.7108 1018.5 55.485V53.2656C1018.5 52.677 1018.26 52.1125 1017.84 51.6963C1017.42 51.2801 1016.85 51.0462 1016.25 51.0462H989.25ZM993.75 55.485C994.993 55.485 996 56.4787 996 57.7044V66.582C996 67.8078 994.993 68.8014 993.75 68.8014C992.507 68.8014 991.5 67.8078 991.5 66.582V57.7044C991.5 56.4787 992.507 55.485 993.75 55.485ZM1002.75 55.485C1003.99 55.485 1005 56.4787 1005 57.7044V66.582C1005 67.8078 1003.99 68.8014 1002.75 68.8014C1001.51 68.8014 1000.5 67.8078 1000.5 66.582V57.7044C1000.5 56.4787 1001.51 55.485 1002.75 55.485ZM1011.75 55.485C1012.99 55.485 1014 56.4787 1014 57.7044V66.582C1014 67.8078 1012.99 68.8014 1011.75 68.8014C1010.51 68.8014 1009.5 67.8078 1009.5 66.582V57.7044C1009.5 56.4787 1010.51 55.485 1011.75 55.485Z" fill="#3D484F"/>
</svg>
